<svg width="76" height="13" viewBox="0 0 76 13" fill="none" xmlns="http://www.w3.org/2000/svg">
<path d="M4.992 1.48C5.456 1.48 5.864 1.524 6.216 1.612C6.576 1.692 6.876 1.82 7.116 1.996C7.356 2.172 7.536 2.392 7.656 2.656C7.784 2.92 7.848 3.224 7.848 3.568C7.848 3.976 7.748 4.324 7.548 4.612C7.356 4.892 7.072 5.108 6.696 5.26C6.32 5.412 5.86 5.496 5.316 5.512L5.604 5.212V5.848L5.34 5.5C5.948 5.532 6.464 5.632 6.888 5.8C7.312 5.96 7.636 6.192 7.86 6.496C8.084 6.8 8.196 7.176 8.196 7.624C8.196 8.016 8.128 8.364 7.992 8.668C7.856 8.964 7.656 9.212 7.392 9.412C7.128 9.604 6.804 9.752 6.42 9.856C6.036 9.952 5.596 10 5.1 10H0.552V9.148H0.672C0.92 9.148 1.12 9.12 1.272 9.064C1.432 9.008 1.512 8.892 1.512 8.716V2.764C1.512 2.588 1.432 2.472 1.272 2.416C1.12 2.36 0.92 2.332 0.672 2.332H0.552V1.48H4.992ZM2.844 5.128H4.656C4.976 5.128 5.232 5.076 5.424 4.972C5.624 4.868 5.768 4.708 5.856 4.492C5.952 4.276 6 4.004 6 3.676C6 3.396 5.952 3.16 5.856 2.968C5.76 2.768 5.616 2.616 5.424 2.512C5.232 2.408 4.984 2.356 4.68 2.356H3.348V9.124H4.764C5.116 9.124 5.404 9.068 5.628 8.956C5.86 8.836 6.032 8.66 6.144 8.428C6.256 8.188 6.312 7.896 6.312 7.552C6.312 7.2 6.252 6.908 6.132 6.676C6.02 6.436 5.84 6.256 5.592 6.136C5.352 6.016 5.044 5.956 4.668 5.956H2.844V5.128ZM14.3677 3.352V5.032C14.3117 5.024 14.2277 5.016 14.1157 5.008C14.0117 4.992 13.8997 4.984 13.7797 4.984C13.6597 4.976 13.5437 4.972 13.4317 4.972C13.2477 4.972 13.0717 4.984 12.9037 5.008C12.7437 5.032 12.5917 5.072 12.4477 5.128C12.3117 5.184 12.1797 5.26 12.0517 5.356C11.9317 5.444 11.8077 5.56 11.6797 5.704L11.6437 5.296C11.8677 4.856 12.0837 4.488 12.2917 4.192C12.4997 3.896 12.7277 3.672 12.9757 3.52C13.2317 3.368 13.5317 3.292 13.8757 3.292C13.9877 3.292 14.0877 3.3 14.1757 3.316C14.2717 3.324 14.3357 3.336 14.3677 3.352ZM9.30366 10V9.268H9.33966C9.59566 9.268 9.79566 9.22 9.93966 9.124C10.0837 9.028 10.1557 8.844 10.1557 8.572V4.72C10.1557 4.624 10.1277 4.552 10.0717 4.504C10.0237 4.448 9.94366 4.404 9.83166 4.372C9.71966 4.34 9.57966 4.308 9.41166 4.276L9.30366 4.252V3.424H11.6437L11.8597 5.164H11.8957V9.1C11.8957 9.148 11.9437 9.184 12.0397 9.208C12.1357 9.232 12.2517 9.248 12.3877 9.256C12.5237 9.264 12.6517 9.268 12.7717 9.268H12.9637V10H9.30366ZM16.8773 2.416C16.5493 2.416 16.2893 2.34 16.0973 2.188C15.9053 2.028 15.8093 1.788 15.8093 1.468C15.8093 1.156 15.9053 0.919999 16.0973 0.76C16.2893 0.6 16.5493 0.52 16.8773 0.52C17.1973 0.52 17.4533 0.6 17.6453 0.76C17.8453 0.919999 17.9453 1.156 17.9453 1.468C17.9453 1.78 17.8453 2.016 17.6453 2.176C17.4533 2.336 17.1973 2.416 16.8773 2.416ZM17.8253 3.424V8.62C17.8253 8.876 17.8973 9.048 18.0413 9.136C18.1853 9.224 18.3853 9.268 18.6413 9.268H18.6773V10H15.2453V9.268H15.2813C15.5373 9.268 15.7373 9.224 15.8813 9.136C16.0253 9.048 16.0973 8.876 16.0973 8.62V4.72C16.0973 4.576 16.0333 4.48 15.9053 4.432C15.7853 4.376 15.6013 4.324 15.3533 4.276L15.2333 4.24V3.424H17.8253ZM26.2918 8.74C26.2918 8.884 26.3558 8.984 26.4838 9.04C26.6198 9.088 26.8078 9.132 27.0478 9.172L27.1318 9.196V10H24.8038L24.5998 8.536L24.5398 8.608V2.104C24.5398 2.008 24.5118 1.936 24.4558 1.888C24.3998 1.832 24.3158 1.788 24.2038 1.756C24.0918 1.724 23.9518 1.692 23.7838 1.66L23.6758 1.636V0.819999H26.2918V8.74ZM22.4878 3.292C22.8718 3.292 23.2118 3.368 23.5078 3.52C23.8118 3.664 24.0758 3.872 24.2998 4.144C24.5318 4.416 24.7358 4.744 24.9118 5.128L24.8878 5.836C24.6718 5.5 24.4638 5.22 24.2638 4.996C24.0638 4.772 23.8558 4.608 23.6398 4.504C23.4238 4.392 23.1758 4.336 22.8958 4.336C22.6238 4.336 22.3878 4.388 22.1878 4.492C21.9958 4.588 21.8318 4.74 21.6958 4.948C21.5678 5.148 21.4718 5.404 21.4078 5.716C21.3438 6.02 21.3118 6.376 21.3118 6.784C21.3118 7.168 21.3398 7.508 21.3958 7.804C21.4518 8.092 21.5358 8.336 21.6478 8.536C21.7678 8.728 21.9198 8.872 22.1038 8.968C22.2958 9.064 22.5238 9.112 22.7878 9.112C23.0758 9.112 23.3318 9.06 23.5558 8.956C23.7878 8.844 24.0118 8.672 24.2278 8.44C24.4438 8.2 24.6678 7.892 24.8998 7.516L24.9118 8.236C24.7118 8.628 24.4918 8.968 24.2518 9.256C24.0198 9.544 23.7478 9.764 23.4358 9.916C23.1318 10.068 22.7718 10.144 22.3558 10.144C21.7478 10.144 21.2318 10.004 20.8078 9.724C20.3838 9.436 20.0598 9.04 19.8358 8.536C19.6198 8.024 19.5118 7.44 19.5118 6.784C19.5118 6.112 19.6278 5.516 19.8598 4.996C20.0998 4.468 20.4398 4.052 20.8798 3.748C21.3278 3.444 21.8638 3.292 22.4878 3.292ZM35.497 4.408C35.153 4.368 34.853 4.344 34.597 4.336C34.349 4.32 34.129 4.32 33.937 4.336C33.753 4.344 33.577 4.368 33.409 4.408L33.169 4.468C33.281 4.196 33.405 3.96 33.541 3.76C33.685 3.552 33.849 3.384 34.033 3.256C34.217 3.12 34.425 3.028 34.657 2.98C34.897 2.932 35.177 2.92 35.497 2.944V4.408ZM31.261 7.912C30.685 7.912 30.185 7.82 29.761 7.636C29.337 7.452 29.005 7.188 28.765 6.844C28.533 6.5 28.417 6.092 28.417 5.62C28.417 5.156 28.533 4.748 28.765 4.396C29.005 4.044 29.337 3.772 29.761 3.58C30.193 3.388 30.693 3.292 31.261 3.292C31.837 3.292 32.341 3.388 32.773 3.58C33.205 3.772 33.537 4.044 33.769 4.396C34.009 4.748 34.129 5.156 34.129 5.62C34.129 6.092 34.009 6.5 33.769 6.844C33.537 7.188 33.205 7.452 32.773 7.636C32.349 7.82 31.845 7.912 31.261 7.912ZM31.261 7.108C31.549 7.108 31.781 7.056 31.957 6.952C32.133 6.848 32.261 6.688 32.341 6.472C32.429 6.248 32.473 5.968 32.473 5.632C32.473 5.288 32.429 5.004 32.341 4.78C32.261 4.556 32.133 4.392 31.957 4.288C31.781 4.176 31.549 4.12 31.261 4.12C30.989 4.12 30.765 4.176 30.589 4.288C30.413 4.392 30.281 4.556 30.193 4.78C30.105 5.004 30.061 5.288 30.061 5.632C30.061 5.968 30.101 6.248 30.181 6.472C30.269 6.688 30.401 6.848 30.577 6.952C30.761 7.056 30.989 7.108 31.261 7.108ZM30.253 12.976C29.717 12.976 29.257 12.928 28.873 12.832C28.497 12.736 28.205 12.584 27.997 12.376C27.797 12.176 27.697 11.912 27.697 11.584C27.697 11.336 27.757 11.124 27.877 10.948C27.997 10.772 28.185 10.612 28.441 10.468C28.697 10.332 29.033 10.192 29.449 10.048L29.797 10.276C29.605 10.404 29.457 10.524 29.353 10.636C29.249 10.756 29.177 10.872 29.137 10.984C29.097 11.104 29.077 11.236 29.077 11.38C29.077 11.54 29.121 11.676 29.209 11.788C29.305 11.908 29.457 11.996 29.665 12.052C29.881 12.116 30.165 12.148 30.517 12.148H31.945C32.329 12.148 32.645 12.108 32.893 12.028C33.149 11.948 33.337 11.832 33.457 11.68C33.577 11.528 33.637 11.336 33.637 11.104C33.637 10.912 33.577 10.764 33.457 10.66C33.345 10.556 33.149 10.504 32.869 10.504H29.545L29.629 10.396C29.301 10.348 29.021 10.268 28.789 10.156C28.565 10.044 28.397 9.896 28.285 9.712C28.173 9.528 28.117 9.312 28.117 9.064C28.117 8.808 28.181 8.576 28.309 8.368C28.445 8.16 28.633 7.972 28.873 7.804C29.121 7.636 29.417 7.48 29.761 7.336L30.205 7.564C30.037 7.684 29.897 7.796 29.785 7.9C29.673 8.004 29.593 8.104 29.545 8.2C29.497 8.288 29.473 8.388 29.473 8.5C29.473 8.676 29.533 8.804 29.653 8.884C29.781 8.956 29.973 8.992 30.229 8.992H32.989C33.445 8.992 33.833 9.056 34.153 9.184C34.473 9.304 34.713 9.492 34.873 9.748C35.041 9.996 35.125 10.312 35.125 10.696C35.125 11.208 34.989 11.632 34.717 11.968C34.445 12.312 34.073 12.564 33.601 12.724C33.129 12.892 32.597 12.976 32.005 12.976H30.253ZM37.5992 6.76C37.5992 7.224 37.6432 7.616 37.7312 7.936C37.8192 8.248 37.9472 8.5 38.1152 8.692C38.2912 8.876 38.4992 9.008 38.7392 9.088C38.9872 9.168 39.2632 9.208 39.5672 9.208C39.8872 9.208 40.1632 9.16 40.3952 9.064C40.6352 8.968 40.8392 8.836 41.0072 8.668C41.1832 8.5 41.3352 8.312 41.4632 8.104L42.2072 8.632C42.0392 8.944 41.8232 9.216 41.5592 9.448C41.2952 9.672 40.9832 9.848 40.6232 9.976C40.2632 10.096 39.8552 10.156 39.3992 10.156C38.6952 10.156 38.0752 10.028 37.5392 9.772C37.0112 9.508 36.5992 9.124 36.3032 8.62C36.0152 8.116 35.8712 7.496 35.8712 6.76C35.8712 6.064 36.0072 5.456 36.2792 4.936C36.5592 4.416 36.9472 4.012 37.4432 3.724C37.9392 3.436 38.5152 3.292 39.1712 3.292C39.6992 3.292 40.1512 3.372 40.5272 3.532C40.9112 3.692 41.2272 3.928 41.4752 4.24C41.7312 4.552 41.9192 4.944 42.0392 5.416C42.1672 5.888 42.2352 6.44 42.2432 7.072H37.1192V6.268H40.8752L40.5992 6.58C40.5832 6.108 40.5472 5.716 40.4912 5.404C40.4352 5.092 40.3512 4.848 40.2392 4.672C40.1352 4.496 39.9952 4.372 39.8192 4.3C39.6512 4.22 39.4432 4.18 39.1952 4.18C38.9472 4.18 38.7232 4.224 38.5232 4.312C38.3312 4.4 38.1632 4.548 38.0192 4.756C37.8832 4.956 37.7792 5.22 37.7072 5.548C37.6352 5.876 37.5992 6.28 37.5992 6.76ZM50.7752 2.188C50.3832 2.188 50.0392 2.26 49.7432 2.404C49.4472 2.54 49.1992 2.756 48.9992 3.052C48.7992 3.34 48.6472 3.708 48.5432 4.156C48.4392 4.604 48.3872 5.132 48.3872 5.74C48.3872 6.356 48.4392 6.888 48.5432 7.336C48.6472 7.784 48.8032 8.152 49.0112 8.44C49.2192 8.728 49.4792 8.944 49.7912 9.088C50.1112 9.224 50.4832 9.292 50.9072 9.292C51.4112 9.292 51.8352 9.196 52.1792 9.004C52.5232 8.804 52.8032 8.528 53.0192 8.176C53.2432 7.824 53.4192 7.424 53.5472 6.976L54.4112 7.36C54.2432 7.952 53.9992 8.464 53.6792 8.896C53.3592 9.328 52.9552 9.66 52.4672 9.892C51.9792 10.124 51.3952 10.24 50.7152 10.24C50.0752 10.24 49.4952 10.144 48.9752 9.952C48.4552 9.752 48.0072 9.46 47.6312 9.076C47.2552 8.692 46.9632 8.224 46.7552 7.672C46.5552 7.112 46.4552 6.468 46.4552 5.74C46.4552 5.004 46.5592 4.356 46.7672 3.796C46.9752 3.236 47.2672 2.768 47.6432 2.392C48.0192 2.008 48.4592 1.72 48.9632 1.528C49.4672 1.336 50.0112 1.24 50.5952 1.24C51.1712 1.24 51.6592 1.348 52.0592 1.564C52.4672 1.772 52.7912 2.076 53.0312 2.476C53.2792 2.876 53.4472 3.356 53.5352 3.916L53.1152 3.484L53.3192 1.396H54.2672V4.372H53.1872C53.0672 3.924 52.8952 3.536 52.6712 3.208C52.4552 2.88 52.1912 2.628 51.8792 2.452C51.5672 2.276 51.1992 2.188 50.7752 2.188ZM58.0561 0.819999V9.16C58.0561 9.184 58.0921 9.208 58.1641 9.232C58.2361 9.248 58.3241 9.26 58.4281 9.268C58.5401 9.268 58.6401 9.268 58.7281 9.268H58.7761V10H55.4521V9.268H55.4881C55.6641 9.268 55.8121 9.248 55.9321 9.208C56.0521 9.168 56.1441 9.096 56.2081 8.992C56.2721 8.888 56.3041 8.748 56.3041 8.572V2.104C56.3041 2.008 56.2761 1.936 56.2201 1.888C56.1721 1.832 56.0921 1.788 55.9801 1.756C55.8761 1.724 55.7401 1.692 55.5721 1.66L55.4521 1.636V0.819999H58.0561ZM63.1681 10H59.8441V9.268H59.8921C59.9801 9.268 60.0761 9.268 60.1801 9.268C60.2921 9.26 60.3841 9.248 60.4561 9.232C60.5361 9.208 60.5761 9.184 60.5761 9.16V5.284C60.5761 5.084 60.5481 4.92 60.4921 4.792C60.4361 4.656 60.3481 4.556 60.2281 4.492C60.1081 4.42 59.9441 4.384 59.7361 4.384C59.5201 4.384 59.3001 4.436 59.0761 4.54C58.8601 4.644 58.6441 4.804 58.4281 5.02C58.2201 5.228 58.0001 5.496 57.7681 5.824L57.7921 5.044C58.0001 4.684 58.2361 4.376 58.5001 4.12C58.7721 3.856 59.0681 3.652 59.3881 3.508C59.7161 3.356 60.0641 3.28 60.4321 3.28C60.8321 3.28 61.1721 3.352 61.4521 3.496C61.7321 3.64 61.9441 3.852 62.0881 4.132C62.2401 4.412 62.3161 4.756 62.3161 5.164V8.572C62.3161 8.844 62.3881 9.028 62.5321 9.124C62.6761 9.22 62.8721 9.268 63.1201 9.268H63.1681V10ZM68.2808 6.004V6.748C67.8488 6.82 67.4808 6.896 67.1768 6.976C66.8808 7.056 66.6368 7.144 66.4448 7.24C66.2528 7.336 66.1048 7.44 66.0008 7.552C65.8968 7.656 65.8248 7.776 65.7848 7.912C65.7448 8.04 65.7248 8.18 65.7248 8.332C65.7248 8.556 65.7608 8.736 65.8328 8.872C65.9128 9 66.0208 9.096 66.1568 9.16C66.3008 9.224 66.4688 9.256 66.6608 9.256C66.8528 9.256 67.0328 9.212 67.2008 9.124C67.3768 9.036 67.5528 8.896 67.7288 8.704C67.9048 8.512 68.0848 8.26 68.2688 7.948L68.3408 8.524C68.1728 8.884 67.9808 9.184 67.7648 9.424C67.5488 9.664 67.3048 9.844 67.0328 9.964C66.7688 10.076 66.4608 10.132 66.1088 10.132C65.6768 10.132 65.3088 10.072 65.0048 9.952C64.7008 9.824 64.4688 9.632 64.3088 9.376C64.1488 9.12 64.0688 8.796 64.0688 8.404C64.0688 8.06 64.1408 7.764 64.2848 7.516C64.4368 7.268 64.6768 7.052 65.0048 6.868C65.3328 6.684 65.7648 6.524 66.3008 6.388C66.8368 6.244 67.4968 6.116 68.2808 6.004ZM68.3768 10L68.1848 8.62L68.1128 8.596V5.14C68.1128 4.924 68.0808 4.748 68.0168 4.612C67.9608 4.468 67.8528 4.364 67.6928 4.3C67.5328 4.228 67.3008 4.192 66.9967 4.192C66.5648 4.192 66.2088 4.244 65.9288 4.348C65.6488 4.452 65.4528 4.56 65.3408 4.672C65.3008 4.632 65.2848 4.58 65.2928 4.516C65.3088 4.452 65.3408 4.392 65.3888 4.336C65.4448 4.272 65.5168 4.22 65.6048 4.18C65.6928 4.14 65.8008 4.12 65.9288 4.12V5.56H64.4408V3.988C64.5608 3.9 64.7408 3.804 64.9808 3.7C65.2288 3.596 65.5328 3.504 65.8928 3.424C66.2528 3.336 66.6688 3.292 67.1408 3.292C67.5488 3.292 67.9168 3.332 68.2448 3.412C68.5808 3.484 68.8648 3.596 69.0968 3.748C69.3368 3.9 69.5168 4.1 69.6367 4.348C69.7648 4.596 69.8288 4.888 69.8288 5.224V8.74C69.8288 8.836 69.8568 8.912 69.9128 8.968C69.9768 9.016 70.0648 9.056 70.1768 9.088C70.2888 9.112 70.4288 9.14 70.5968 9.172L70.6808 9.196V10H68.3768ZM70.973 4.324V3.484H71.105C71.337 3.484 71.537 3.468 71.705 3.436C71.873 3.396 72.001 3.32 72.089 3.208C72.177 3.096 72.221 2.928 72.221 2.704L73.301 3.424H75.905V4.324H70.973ZM73.877 8.008C73.877 8.304 73.921 8.532 74.009 8.692C74.097 8.852 74.225 8.964 74.393 9.028C74.561 9.092 74.761 9.124 74.993 9.124C75.201 9.124 75.389 9.112 75.557 9.088C75.733 9.056 75.849 9.036 75.905 9.028V9.964C75.809 9.988 75.689 10.012 75.545 10.036C75.401 10.068 75.241 10.092 75.065 10.108C74.897 10.124 74.721 10.132 74.537 10.132C74.089 10.132 73.681 10.076 73.313 9.964C72.953 9.852 72.665 9.648 72.449 9.352C72.241 9.056 72.137 8.636 72.137 8.092V3.616L72.221 3.52V1.54H73.877V8.008Z" fill="black"/>
</svg>
